# xmcd
# 
# Track frame offsets:
#     150
#     8738
#     94287
#     186267
#     318693
#     325140
# 
# Disc length: 4721
# 
# Revision: 1
# Processed by: cddbd v1.5.2PL0 Copyright (c) Steve Scherf et al.
# Submitted via: fre:ac v1.0.17
# 
DISCID=4c126f06
DTITLE=Carlos Santana and John Mclaughlin - A Love Supreme Live Chicago 1973 CD1
DYEAR=1973
DGENRE=cool
TTITLE0=Meditation
TTITLE1=The Life Divine
TTITLE2=A Love Supreme
TTITLE3=I'm Aware Of You
TTITLE4=Band introductions
TTITLE5=Naima
EXTD=
EXTT0=
EXTT1=
EXTT2=
EXTT3=
EXTT4=
EXTT5=
PLAYORDER=
